<svg xmlns="http://www.w3.org/2000/svg" viewBox="0 0 64 64" role="img" aria-label="CodeTrip favicon">
  <defs>
    <linearGradient id="bg" x1="8" y1="6" x2="56" y2="58" gradientUnits="userSpaceOnUse">
      <stop offset="0" stop-color="#00b8d4"/>
      <stop offset="1" stop-color="#006879"/>
    </linearGradient>
    <linearGradient id="pin" x1="24" y1="14" x2="43" y2="43" gradientUnits="userSpaceOnUse">
      <stop offset="0" stop-color="#ffffff"/>
      <stop offset="1" stop-color="#dff8fb"/>
    </linearGradient>
  </defs>
  <rect width="64" height="64" rx="18" fill="#071827"/>
  <path d="M17 17c8-9 25-9 34 0" fill="none" stroke="url(#bg)" stroke-width="6" stroke-linecap="round"/>
  <path d="M17 47c8 9 25 9 34 0" fill="none" stroke="url(#bg)" stroke-width="6" stroke-linecap="round"/>
  <path d="M38.5 26.7c0 7.7-9.5 18.3-9.5 18.3s-9.5-10.6-9.5-18.3A9.5 9.5 0 0 1 29 17.2a9.5 9.5 0 0 1 9.5 9.5Z" fill="url(#pin)"/>
  <circle cx="29" cy="26.8" r="3.2" fill="#006879"/>
  <path d="M44.5 22.5l1.6 3.4 3.4 1.6-3.4 1.6-1.6 3.4-1.6-3.4-3.4-1.6 3.4-1.6 1.6-3.4Z" fill="#7ee7f4"/>
  <path d="M47.5 10.5l.9 1.9 1.9.9-1.9.9-.9 1.9-.9-1.9-1.9-.9 1.9-.9.9-1.9Z" fill="#ffffff"/>
</svg>
